<?xml version="1.0" encoding="UTF-8"?><svg id="Ebene_1" xmlns="http://www.w3.org/2000/svg" viewBox="0 0 283.46 138.9"><defs><style>.cls-1{fill:#2d415f;}.cls-2{fill:#c8d23c;}</style></defs><path class="cls-2" d="M121.49,114.25c-23.45,27.75-65.12,31.25-92.87,7.8C-3.58,94.84-7.77,46.61,19.13,14.26l5.7,5.7C1.26,48.93,5.16,91.71,33.8,115.92c24.37,20.6,60.96,17.53,81.56-6.85,17.29-20.47,14.72-51.18-5.75-68.48-17.14-14.49-42.87-12.33-57.36,4.81-12.1,14.32-10.3,35.81,4.02,47.91,11.92,10.07,29.8,8.57,39.87-3.35,8.35-9.87,7.1-24.7-2.78-33.04-4.4-3.72-10-5.13-15.3-4.34v3c4.19-.4,8.54.81,12,3.74,7.73,6.53,8.7,18.13,2.17,25.86-7.43,8.79-20.63,9.9-29.42,2.47-10.05-8.49-11.31-23.57-2.82-33.61,9.74-11.52,27.03-12.97,38.55-3.24,13.26,11.2,14.92,31.1,3.73,44.35-12.93,15.3-35.89,17.23-51.18,4.3-17.7-14.96-19.93-41.52-4.97-59.22,17.34-20.52,48.15-23.11,68.67-5.76,23.85,20.15,26.85,55.94,6.7,79.79Z"/><path class="cls-1" d="M171.63,56.29V23.51h11.47c2.25,0,4.23.34,5.95,1.03,1.72.69,3.06,1.73,4.03,3.14.97,1.4,1.45,3.18,1.45,5.34,0,1.16-.3,2.24-.91,3.25-.61,1.01-1.44,1.93-2.51,2.74,1.5.78,2.65,1.8,3.44,3.07.8,1.26,1.19,2.82,1.19,4.66,0,2.06-.47,3.8-1.4,5.22-.94,1.42-2.23,2.5-3.89,3.23-1.66.73-3.59,1.1-5.81,1.1h-13.02ZM178.98,36.39h3.89c1.19,0,2.14-.3,2.86-.91.72-.61,1.08-1.46,1.08-2.55s-.38-1.99-1.15-2.6c-.77-.61-1.79-.91-3.07-.91h-3.61v6.98ZM178.98,49.64h4.82c1.28,0,2.29-.34,3.04-1.01.75-.67,1.12-1.54,1.12-2.6,0-1.12-.39-2.01-1.17-2.65-.78-.64-1.86-.96-3.23-.96h-4.59v7.21ZM199.85,56.29V23.51h7.54v32.78h-7.54ZM228.57,56.85c-3.37,0-6.35-.73-8.94-2.18-2.59-1.45-4.62-3.45-6.09-5.99-1.47-2.54-2.2-5.45-2.2-8.73s.73-6.24,2.2-8.78c1.47-2.54,3.49-4.54,6.06-5.99,2.58-1.45,5.53-2.18,8.87-2.18s6.3.73,8.87,2.18c2.58,1.45,4.6,3.45,6.06,5.99,1.47,2.54,2.2,5.47,2.2,8.78s-.73,6.19-2.18,8.73c-1.45,2.54-3.46,4.54-6.02,5.99-2.56,1.45-5.51,2.18-8.85,2.18ZM228.57,49.92c1.84,0,3.47-.42,4.87-1.26,1.4-.84,2.5-2.02,3.28-3.54.78-1.51,1.17-3.24,1.17-5.17s-.41-3.71-1.22-5.22c-.81-1.51-1.92-2.7-3.32-3.56-1.4-.86-3.03-1.29-4.87-1.29s-3.47.43-4.87,1.29c-1.4.86-2.51,2.05-3.32,3.56-.81,1.51-1.22,3.25-1.22,5.22s.41,3.66,1.22,5.17c.81,1.51,1.94,2.69,3.37,3.54,1.44.84,3.07,1.26,4.92,1.26ZM171.63,96.61v-32.78h10.72c3.47,0,6.53.7,9.2,2.11,2.67,1.4,4.75,3.33,6.25,5.78,1.5,2.45,2.25,5.28,2.25,8.5s-.75,6.01-2.25,8.48c-1.5,2.47-3.58,4.4-6.25,5.81-2.67,1.4-5.74,2.11-9.2,2.11h-10.72ZM179.16,89.49h3.18c1.44,0,2.76-.23,3.98-.68,1.22-.45,2.28-1.09,3.18-1.92.91-.83,1.61-1.81,2.11-2.95.5-1.14.75-2.38.75-3.72s-.25-2.58-.75-3.72c-.5-1.14-1.2-2.12-2.11-2.95-.91-.83-1.97-1.47-3.18-1.92-1.22-.45-2.54-.68-3.98-.68h-3.18v18.54ZM203.79,96.61v-32.78h21.35v6.93h-13.81v5.99h11.57v6.7h-11.57v6.23h14.05v6.93h-21.59ZM230.37,96.61v-32.78h21.35v6.93h-13.81v5.99h11.57v6.7h-11.57v6.23h14.05v6.93h-21.59ZM256.95,96.61v-32.78h12.88c2.37,0,4.48.48,6.32,1.43,1.84.95,3.28,2.26,4.33,3.93,1.05,1.67,1.57,3.61,1.57,5.83s-.51,4.08-1.52,5.78c-1.01,1.7-2.43,3.04-4.24,4-1.81.97-3.89,1.45-6.23,1.45h-5.57v10.35h-7.54ZM264.49,79.33h5.38c1.34,0,2.42-.4,3.23-1.19.81-.8,1.22-1.83,1.22-3.11s-.43-2.32-1.29-3.11c-.86-.8-1.99-1.19-3.39-1.19h-5.15v8.62ZM181.18,136.93v-25.85h-9.55v-6.93h26.6v6.93h-9.55v25.85h-7.49ZM201.79,136.93v-32.78h7.54v32.78h-7.54ZM214.02,136.93v-32.78h8.29l8.71,12.92,8.76-12.92h8.29v32.78h-7.54v-21.07l-9.46,13.86-9.51-13.86v21.07h-7.54ZM253.74,136.93v-32.78h21.35v6.93h-13.81v5.99h11.57v6.7h-11.57v6.23h14.05v6.93h-21.59ZM83.2,60.6l-2.33-40.21-.17-3.04h-5.74l-.17,3.04-2.27,39.24L12.57,3.4l-2.22-2.08-4.16,4.17,2.08,2.22,56.9,60.65c-.52,1.44-.81,2.99-.81,4.61,0,7.44,6.03,13.47,13.47,13.47s13.47-6.03,13.47-13.47c0-5.53-3.33-10.29-8.1-12.36Z"/></svg>